<?xml version="1.0" encoding="UTF-8" standalone="no"?>
<!-- Created with Inkscape (http://www.inkscape.org/) -->

<svg
   width="340.88562"
   height="372.36542"
   viewBox="0 0 90.192652 98.521686"
   version="1.1"
   id="svg5"
   inkscape:version="1.1 (c68e22c387, 2021-05-23)"
   sodipodi:docname="pot-favicon.svg"
   xmlns:inkscape="http://www.inkscape.org/namespaces/inkscape"
   xmlns:sodipodi="http://sodipodi.sourceforge.net/DTD/sodipodi-0.dtd"
   xmlns="http://www.w3.org/2000/svg"
   xmlns:svg="http://www.w3.org/2000/svg">
  <sodipodi:namedview
     id="namedview7"
     pagecolor="#ffffff"
     bordercolor="#666666"
     borderopacity="1.0"
     inkscape:pageshadow="2"
     inkscape:pageopacity="0.0"
     inkscape:pagecheckerboard="0"
     inkscape:document-units="px"
     showgrid="false"
     inkscape:zoom="0.64854097"
     inkscape:cx="-20.815956"
     inkscape:cy="393.19027"
     inkscape:window-width="1482"
     inkscape:window-height="1030"
     inkscape:window-x="369"
     inkscape:window-y="0"
     inkscape:window-maximized="0"
     inkscape:current-layer="layer1"
     units="px"
     fit-margin-top="0"
     fit-margin-left="0"
     fit-margin-right="0"
     fit-margin-bottom="0" />
  <defs
     id="defs2" />
  <g
     inkscape:label="Layer 1"
     inkscape:groupmode="layer"
     id="layer1"
     transform="translate(-61.491499,-18.14985)">
    <g
       id="g9701">
      <path
         sodipodi:type="star"
         style="fill:#090707;fill-opacity:1;stroke:none;stroke-width:11.3386;stroke-miterlimit:4;stroke-dasharray:none;stroke-opacity:1"
         id="path6571"
         inkscape:flatsided="true"
         sodipodi:sides="6"
         sodipodi:cx="130.83647"
         sodipodi:cy="82.863098"
         sodipodi:r1="672.39142"
         sodipodi:r2="582.30804"
         sodipodi:arg1="0.80374473"
         sodipodi:arg2="1.3273435"
         inkscape:rounded="0"
         inkscape:randomized="0"
         d="M 597.48656,566.95805 -55.07701,729.0414 -521.72709,244.94645 -335.81361,-401.23185 316.74995,-563.3152 783.40004,-79.220255 Z"
         transform="matrix(0.06910641,0,0,0.07307289,97.546185,59.31292)" />
      <ellipse
         style="fill:#ffffff;stroke:none;stroke-width:0.278663"
         id="path846"
         cx="101.37981"
         cy="96.688194"
         rx="22.63513"
         ry="19.983343" />
      <rect
         style="fill:#ffffff;fill-opacity:1;stroke:none;stroke-width:0.205342"
         id="rect1090"
         width="12.286466"
         height="29.781595"
         x="95.236572"
         y="52.281284" />
      <path
         sodipodi:type="star"
         style="fill:#ffffff;fill-opacity:1;stroke:none"
         id="path2191"
         inkscape:flatsided="true"
         sodipodi:sides="3"
         sodipodi:cx="333.0553"
         sodipodi:cy="299.133"
         sodipodi:r1="11.647365"
         sodipodi:r2="6.8956876"
         sodipodi:arg1="-0.16442703"
         sodipodi:arg2="0.88277052"
         inkscape:rounded="0"
         inkscape:randomized="0"
         d="m 344.54557,297.22647 -15.58431,12.81065 -3.30219,-19.90173 z"
         transform="matrix(-0.11792549,-1.302227,-0.18663368,0.11216699,203.42902,471.22224)"
         inkscape:transform-center-x="-0.43769824"
         inkscape:transform-center-y="-1.3402792" />
      <path
         sodipodi:type="star"
         style="fill:#ffffff;fill-opacity:1;stroke:none"
         id="path2193"
         inkscape:flatsided="true"
         sodipodi:sides="3"
         sodipodi:cx="333.0553"
         sodipodi:cy="299.133"
         sodipodi:r1="11.647365"
         sodipodi:r2="6.8956876"
         sodipodi:arg1="-0.16442703"
         sodipodi:arg2="0.88277052"
         inkscape:rounded="0"
         inkscape:randomized="0"
         d="m 344.54557,297.22647 -15.58431,12.81065 -3.30219,-19.90173 z"
         transform="matrix(0.11792549,-1.302227,0.18663368,0.11216699,-0.7805733,471.33042)"
         inkscape:transform-center-x="0.43769833"
         inkscape:transform-center-y="-1.3402792" />
      <path
         sodipodi:type="spiral"
         style="fill:none;fill-rule:evenodd;stroke:#000000"
         id="path2298"
         sodipodi:cx="327.65857"
         sodipodi:cy="316.09415"
         sodipodi:expansion="1"
         sodipodi:revolution="3"
         sodipodi:radius="13.26412"
         sodipodi:argument="-17.89901"
         sodipodi:t0="0"
         d="m 327.65857,316.09415 c 0.38655,0.54116 -0.53877,0.78805 -0.89946,0.64247 -0.97742,-0.39453 -0.92391,-1.72179 -0.38548,-2.44138 0.96313,-1.28718 2.88204,-1.13696 3.9833,-0.1285 1.61615,1.47997 1.35926,4.05909 -0.12849,5.52522 -1.98293,1.95413 -5.24224,1.58567 -7.06714,-0.38547 -2.29646,-2.48048 -1.81424,-6.42834 0.64246,-8.60907 2.9754,-2.64115 7.6161,-2.04408 10.15099,0.89945 2.98728,3.46884 2.2747,8.8049 -1.15643,11.69291 -3.96139,3.33433 -9.99439,2.50586 -13.23484,-1.41342 -3.682,-4.45333 -2.73738,-11.18437 1.67041,-14.77676 4.94487,-4.03012 12.3747,-2.96917 16.31868,1.9274 4.37856,5.43611 3.20117,13.5653 -2.18438,17.8606"
         transform="matrix(0.11423761,0,0,0.10240354,63.823284,79.663089)" />
      <path
         sodipodi:type="spiral"
         style="fill:none;fill-rule:evenodd;stroke:#000000"
         id="path2380"
         sodipodi:cx="327.65857"
         sodipodi:cy="316.09415"
         sodipodi:expansion="1"
         sodipodi:revolution="3"
         sodipodi:radius="13.26412"
         sodipodi:argument="-17.89901"
         sodipodi:t0="0"
         d="m 327.65857,316.09415 c 0.38655,0.54116 -0.53877,0.78805 -0.89946,0.64247 -0.97742,-0.39453 -0.92391,-1.72179 -0.38548,-2.44138 0.96313,-1.28718 2.88204,-1.13696 3.9833,-0.1285 1.61615,1.47997 1.35926,4.05909 -0.12849,5.52522 -1.98293,1.95413 -5.24224,1.58567 -7.06714,-0.38547 -2.29646,-2.48048 -1.81424,-6.42834 0.64246,-8.60907 2.9754,-2.64115 7.6161,-2.04408 10.15099,0.89945 2.98728,3.46884 2.2747,8.8049 -1.15643,11.69291 -3.96139,3.33433 -9.99439,2.50586 -13.23484,-1.41342 -3.682,-4.45333 -2.73738,-11.18437 1.67041,-14.77676 4.94487,-4.03012 12.3747,-2.96917 16.31868,1.9274 4.37856,5.43611 3.20117,13.5653 -2.18438,17.8606"
         transform="matrix(0.11423761,0,0,0.10240354,58.236619,79.400111)" />
      <path
         sodipodi:type="spiral"
         style="fill:none;fill-rule:evenodd;stroke:#000000"
         id="path2382"
         sodipodi:cx="327.65857"
         sodipodi:cy="316.09415"
         sodipodi:expansion="1"
         sodipodi:revolution="3"
         sodipodi:radius="13.26412"
         sodipodi:argument="-17.89901"
         sodipodi:t0="0"
         d="m 327.65857,316.09415 c 0.38655,0.54116 -0.53877,0.78805 -0.89946,0.64247 -0.97742,-0.39453 -0.92391,-1.72179 -0.38548,-2.44138 0.96313,-1.28718 2.88204,-1.13696 3.9833,-0.1285 1.61615,1.47997 1.35926,4.05909 -0.12849,5.52522 -1.98293,1.95413 -5.24224,1.58567 -7.06714,-0.38547 -2.29646,-2.48048 -1.81424,-6.42834 0.64246,-8.60907 2.9754,-2.64115 7.6161,-2.04408 10.15099,0.89945 2.98728,3.46884 2.2747,8.8049 -1.15643,11.69291 -3.96139,3.33433 -9.99439,2.50586 -13.23484,-1.41342 -3.682,-4.45333 -2.73738,-11.18437 1.67041,-14.77676 4.94487,-4.03012 12.3747,-2.96917 16.31868,1.9274 4.37856,5.43611 3.20117,13.5653 -2.18438,17.8606"
         transform="matrix(0.11423761,0,0,0.10240354,61.01939,79.59097)" />
      <path
         sodipodi:type="spiral"
         style="fill:none;fill-rule:evenodd;stroke:#000000"
         id="path2384"
         sodipodi:cx="327.65857"
         sodipodi:cy="316.09415"
         sodipodi:expansion="1"
         sodipodi:revolution="3"
         sodipodi:radius="13.26412"
         sodipodi:argument="-17.89901"
         sodipodi:t0="0"
         d="m 327.65857,316.09415 c 0.38655,0.54116 -0.53877,0.78805 -0.89946,0.64247 -0.97742,-0.39453 -0.92391,-1.72179 -0.38548,-2.44138 0.96313,-1.28718 2.88204,-1.13696 3.9833,-0.1285 1.61615,1.47997 1.35926,4.05909 -0.12849,5.52522 -1.98293,1.95413 -5.24224,1.58567 -7.06714,-0.38547 -2.29646,-2.48048 -1.81424,-6.42834 0.64246,-8.60907 2.9754,-2.64115 7.6161,-2.04408 10.15099,0.89945 2.98728,3.46884 2.2747,8.8049 -1.15643,11.69291 -3.96139,3.33433 -9.99439,2.50586 -13.23484,-1.41342 -3.682,-4.45333 -2.73738,-11.18437 1.67041,-14.77676 4.94487,-4.03012 12.3747,-2.96917 16.31868,1.9274 4.37856,5.43611 3.20117,13.5653 -2.18438,17.8606"
         transform="matrix(0.11423761,0,0,0.10240354,66.599868,79.62703)" />
      <path
         sodipodi:type="spiral"
         style="fill:none;fill-rule:evenodd;stroke:#000000"
         id="path2386"
         sodipodi:cx="327.65857"
         sodipodi:cy="316.09415"
         sodipodi:expansion="1"
         sodipodi:revolution="3"
         sodipodi:radius="13.26412"
         sodipodi:argument="-17.89901"
         sodipodi:t0="0"
         d="m 327.65857,316.09415 c 0.38655,0.54116 -0.53877,0.78805 -0.89946,0.64247 -0.97742,-0.39453 -0.92391,-1.72179 -0.38548,-2.44138 0.96313,-1.28718 2.88204,-1.13696 3.9833,-0.1285 1.61615,1.47997 1.35926,4.05909 -0.12849,5.52522 -1.98293,1.95413 -5.24224,1.58567 -7.06714,-0.38547 -2.29646,-2.48048 -1.81424,-6.42834 0.64246,-8.60907 2.9754,-2.64115 7.6161,-2.04408 10.15099,0.89945 2.98728,3.46884 2.2747,8.8049 -1.15643,11.69291 -3.96139,3.33433 -9.99439,2.50586 -13.23484,-1.41342 -3.682,-4.45333 -2.73738,-11.18437 1.67041,-14.77676 4.94487,-4.03012 12.3747,-2.96917 16.31868,1.9274 4.37856,5.43611 3.20117,13.5653 -2.18438,17.8606"
         transform="matrix(0.11423761,0,0,0.10240354,69.376452,79.518851)" />
      <path
         sodipodi:type="spiral"
         style="fill:none;fill-rule:evenodd;stroke:#000000"
         id="path2388"
         sodipodi:cx="327.65857"
         sodipodi:cy="316.09415"
         sodipodi:expansion="1"
         sodipodi:revolution="3"
         sodipodi:radius="13.26412"
         sodipodi:argument="-17.89901"
         sodipodi:t0="0"
         d="m 327.65857,316.09415 c 0.38655,0.54116 -0.53877,0.78805 -0.89946,0.64247 -0.97742,-0.39453 -0.92391,-1.72179 -0.38548,-2.44138 0.96313,-1.28718 2.88204,-1.13696 3.9833,-0.1285 1.61615,1.47997 1.35926,4.05909 -0.12849,5.52522 -1.98293,1.95413 -5.24224,1.58567 -7.06714,-0.38547 -2.29646,-2.48048 -1.81424,-6.42834 0.64246,-8.60907 2.9754,-2.64115 7.6161,-2.04408 10.15099,0.89945 2.98728,3.46884 2.2747,8.8049 -1.15643,11.69291 -3.96139,3.33433 -9.99439,2.50586 -13.23484,-1.41342 -3.682,-4.45333 -2.73738,-11.18437 1.67041,-14.77676 4.94487,-4.03012 12.3747,-2.96917 16.31868,1.9274 4.37856,5.43611 3.20117,13.5653 -2.18438,17.8606"
         transform="matrix(0.11423761,0,0,0.10240354,52.702763,78.683296)" />
      <path
         sodipodi:type="spiral"
         style="fill:none;fill-rule:evenodd;stroke:#000000"
         id="path2390"
         sodipodi:cx="327.65857"
         sodipodi:cy="316.09415"
         sodipodi:expansion="1"
         sodipodi:revolution="3"
         sodipodi:radius="13.26412"
         sodipodi:argument="-17.89901"
         sodipodi:t0="0"
         d="m 327.65857,316.09415 c 0.38655,0.54116 -0.53877,0.78805 -0.89946,0.64247 -0.97742,-0.39453 -0.92391,-1.72179 -0.38548,-2.44138 0.96313,-1.28718 2.88204,-1.13696 3.9833,-0.1285 1.61615,1.47997 1.35926,4.05909 -0.12849,5.52522 -1.98293,1.95413 -5.24224,1.58567 -7.06714,-0.38547 -2.29646,-2.48048 -1.81424,-6.42834 0.64246,-8.60907 2.9754,-2.64115 7.6161,-2.04408 10.15099,0.89945 2.98728,3.46884 2.2747,8.8049 -1.15643,11.69291 -3.96139,3.33433 -9.99439,2.50586 -13.23484,-1.41342 -3.682,-4.45333 -2.73738,-11.18437 1.67041,-14.77676 4.94487,-4.03012 12.3747,-2.96917 16.31868,1.9274 4.37856,5.43611 3.20117,13.5653 -2.18438,17.8606"
         transform="matrix(0.11423761,0,0,0.10240354,55.42835,79.111635)" />
      <path
         sodipodi:type="spiral"
         style="fill:none;fill-rule:evenodd;stroke:#000000"
         id="path2392"
         sodipodi:cx="327.65857"
         sodipodi:cy="316.09415"
         sodipodi:expansion="1"
         sodipodi:revolution="3"
         sodipodi:radius="13.26412"
         sodipodi:argument="-17.89901"
         sodipodi:t0="0"
         d="m 327.65857,316.09415 c 0.38655,0.54116 -0.53877,0.78805 -0.89946,0.64247 -0.97742,-0.39453 -0.92391,-1.72179 -0.38548,-2.44138 0.96313,-1.28718 2.88204,-1.13696 3.9833,-0.1285 1.61615,1.47997 1.35926,4.05909 -0.12849,5.52522 -1.98293,1.95413 -5.24224,1.58567 -7.06714,-0.38547 -2.29646,-2.48048 -1.81424,-6.42834 0.64246,-8.60907 2.9754,-2.64115 7.6161,-2.04408 10.15099,0.89945 2.98728,3.46884 2.2747,8.8049 -1.15643,11.69291 -3.96139,3.33433 -9.99439,2.50586 -13.23484,-1.41342 -3.682,-4.45333 -2.73738,-11.18437 1.67041,-14.77676 4.94487,-4.03012 12.3747,-2.96917 16.31868,1.9274 4.37856,5.43611 3.20117,13.5653 -2.18438,17.8606"
         transform="matrix(0.11423761,0,0,0.10240354,75.001738,78.869779)" />
      <path
         sodipodi:type="spiral"
         style="fill:none;fill-rule:evenodd;stroke:#000000"
         id="path2394"
         sodipodi:cx="327.65857"
         sodipodi:cy="316.09415"
         sodipodi:expansion="1"
         sodipodi:revolution="3"
         sodipodi:radius="13.26412"
         sodipodi:argument="-17.89901"
         sodipodi:t0="0"
         d="m 327.65857,316.09415 c 0.38655,0.54116 -0.53877,0.78805 -0.89946,0.64247 -0.97742,-0.39453 -0.92391,-1.72179 -0.38548,-2.44138 0.96313,-1.28718 2.88204,-1.13696 3.9833,-0.1285 1.61615,1.47997 1.35926,4.05909 -0.12849,5.52522 -1.98293,1.95413 -5.24224,1.58567 -7.06714,-0.38547 -2.29646,-2.48048 -1.81424,-6.42834 0.64246,-8.60907 2.9754,-2.64115 7.6161,-2.04408 10.15099,0.89945 2.98728,3.46884 2.2747,8.8049 -1.15643,11.69291 -3.96139,3.33433 -9.99439,2.50586 -13.23484,-1.41342 -3.682,-4.45333 -2.73738,-11.18437 1.67041,-14.77676 4.94487,-4.03012 12.3747,-2.96917 16.31868,1.9274 4.37856,5.43611 3.20117,13.5653 -2.18438,17.8606"
         transform="matrix(0.11423761,0,0,0.10240354,72.189096,79.302494)" />
      <path
         sodipodi:type="spiral"
         style="fill:none;fill-rule:evenodd;stroke:#000000"
         id="path2396"
         sodipodi:cx="327.65857"
         sodipodi:cy="316.09415"
         sodipodi:expansion="1"
         sodipodi:revolution="3"
         sodipodi:radius="13.26412"
         sodipodi:argument="-17.89901"
         sodipodi:t0="0"
         d="m 327.65857,316.09415 c 0.38655,0.54116 -0.53877,0.78805 -0.89946,0.64247 -0.97742,-0.39453 -0.92391,-1.72179 -0.38548,-2.44138 0.96313,-1.28718 2.88204,-1.13696 3.9833,-0.1285 1.61615,1.47997 1.35926,4.05909 -0.12849,5.52522 -1.98293,1.95413 -5.24224,1.58567 -7.06714,-0.38547 -2.29646,-2.48048 -1.81424,-6.42834 0.64246,-8.60907 2.9754,-2.64115 7.6161,-2.04408 10.15099,0.89945 2.98728,3.46884 2.2747,8.8049 -1.15643,11.69291 -3.96139,3.33433 -9.99439,2.50586 -13.23484,-1.41342 -3.682,-4.45333 -2.73738,-11.18437 1.67041,-14.77676 4.94487,-4.03012 12.3747,-2.96917 16.31868,1.9274 4.37856,5.43611 3.20117,13.5653 -2.18438,17.8606"
         transform="matrix(0.11423761,0,0,0.10240354,49.90068,78.080845)" />
      <path
         sodipodi:type="spiral"
         style="fill:none;fill-rule:evenodd;stroke:#000000"
         id="path2398"
         sodipodi:cx="327.65857"
         sodipodi:cy="316.09415"
         sodipodi:expansion="1"
         sodipodi:revolution="3"
         sodipodi:radius="13.26412"
         sodipodi:argument="-17.89901"
         sodipodi:t0="0"
         d="m 327.65857,316.09415 c 0.38655,0.54116 -0.53877,0.78805 -0.89946,0.64247 -0.97742,-0.39453 -0.92391,-1.72179 -0.38548,-2.44138 0.96313,-1.28718 2.88204,-1.13696 3.9833,-0.1285 1.61615,1.47997 1.35926,4.05909 -0.12849,5.52522 -1.98293,1.95413 -5.24224,1.58567 -7.06714,-0.38547 -2.29646,-2.48048 -1.81424,-6.42834 0.64246,-8.60907 2.9754,-2.64115 7.6161,-2.04408 10.15099,0.89945 2.98728,3.46884 2.2747,8.8049 -1.15643,11.69291 -3.96139,3.33433 -9.99439,2.50586 -13.23484,-1.41342 -3.682,-4.45333 -2.73738,-11.18437 1.67041,-14.77676 4.94487,-4.03012 12.3747,-2.96917 16.31868,1.9274 4.37856,5.43611 3.20117,13.5653 -2.18438,17.8606"
         transform="matrix(0.11423761,0,0,0.10240354,77.670143,78.256768)" />
      <path
         style="fill:none;stroke:#000000;stroke-width:0.504038;stroke-linecap:butt;stroke-linejoin:miter;stroke-miterlimit:4;stroke-dasharray:none;stroke-opacity:1"
         d="m 84.635409,111.11013 c 10.882435,3.03954 24.064971,3.03154 33.395721,-0.0187 v 0"
         id="path2433"
         sodipodi:nodetypes="ccc" />
      <path
         style="fill:none;stroke:#000000;stroke-width:0.420897px;stroke-linecap:butt;stroke-linejoin:miter;stroke-opacity:1"
         d="m 81.637393,107.27792 c 12.491493,4.08613 28.522117,5.16094 39.484247,-0.53093 v 0"
         id="path3055"
         sodipodi:nodetypes="ccc" />
      <path
         sodipodi:type="spiral"
         style="fill:none;fill-rule:evenodd;stroke:#000000"
         id="path3873"
         sodipodi:cx="327.65857"
         sodipodi:cy="316.09415"
         sodipodi:expansion="1"
         sodipodi:revolution="3"
         sodipodi:radius="13.26412"
         sodipodi:argument="-17.89901"
         sodipodi:t0="0"
         d="m 327.65857,316.09415 c 0.38655,0.54116 -0.53877,0.78805 -0.89946,0.64247 -0.97742,-0.39453 -0.92391,-1.72179 -0.38548,-2.44138 0.96313,-1.28718 2.88204,-1.13696 3.9833,-0.1285 1.61615,1.47997 1.35926,4.05909 -0.12849,5.52522 -1.98293,1.95413 -5.24224,1.58567 -7.06714,-0.38547 -2.29646,-2.48048 -1.81424,-6.42834 0.64246,-8.60907 2.9754,-2.64115 7.6161,-2.04408 10.15099,0.89945 2.98728,3.46884 2.2747,8.8049 -1.15643,11.69291 -3.96139,3.33433 -9.99439,2.50586 -13.23484,-1.41342 -3.682,-4.45333 -2.73738,-11.18437 1.67041,-14.77676 4.94487,-4.03012 12.3747,-2.96917 16.31868,1.9274 4.37856,5.43611 3.20117,13.5653 -2.18438,17.8606"
         transform="matrix(0.11423761,0,0,0.10240354,47.125909,77.349092)" />
      <path
         sodipodi:type="spiral"
         style="fill:none;fill-rule:evenodd;stroke:#000000"
         id="path3875"
         sodipodi:cx="327.65857"
         sodipodi:cy="316.09415"
         sodipodi:expansion="1"
         sodipodi:revolution="3"
         sodipodi:radius="13.26412"
         sodipodi:argument="-17.89901"
         sodipodi:t0="0"
         d="m 327.65857,316.09415 c 0.38655,0.54116 -0.53877,0.78805 -0.89946,0.64247 -0.97742,-0.39453 -0.92391,-1.72179 -0.38548,-2.44138 0.96313,-1.28718 2.88204,-1.13696 3.9833,-0.1285 1.61615,1.47997 1.35926,4.05909 -0.12849,5.52522 -1.98293,1.95413 -5.24224,1.58567 -7.06714,-0.38547 -2.29646,-2.48048 -1.81424,-6.42834 0.64246,-8.60907 2.9754,-2.64115 7.6161,-2.04408 10.15099,0.89945 2.98728,3.46884 2.2747,8.8049 -1.15643,11.69291 -3.96139,3.33433 -9.99439,2.50586 -13.23484,-1.41342 -3.682,-4.45333 -2.73738,-11.18437 1.67041,-14.77676 4.94487,-4.03012 12.3747,-2.96917 16.31868,1.9274 4.37856,5.43611 3.20117,13.5653 -2.18438,17.8606"
         transform="matrix(0.11423761,0,0,0.10240354,80.229429,77.412999)" />
      <path
         sodipodi:type="star"
         style="fill:none;fill-opacity:1;stroke:#070504;stroke-width:0.623622;stroke-miterlimit:4;stroke-dasharray:none;stroke-opacity:1"
         id="path4183"
         inkscape:flatsided="true"
         sodipodi:sides="6"
         sodipodi:cx="331.58868"
         sodipodi:cy="395.09891"
         sodipodi:r1="4.0909109"
         sodipodi:r2="3.5428326"
         sodipodi:arg1="1.047518"
         sodipodi:arg2="1.5711168"
         inkscape:rounded="0"
         inkscape:randomized="0"
         d="m 333.633,398.6424 -4.09091,-0.001 -2.04432,-3.54348 2.04659,-3.54218 4.09091,0.001 2.04432,3.54349 z"
         transform="matrix(0.23031709,0.13022435,-0.13022435,0.23031709,77.265668,-24.889746)" />
      <path
         sodipodi:type="star"
         style="fill:none;fill-opacity:1;stroke:#070504;stroke-width:0.623622;stroke-miterlimit:4;stroke-dasharray:none;stroke-opacity:1"
         id="path6205"
         inkscape:flatsided="true"
         sodipodi:sides="6"
         sodipodi:cx="331.58868"
         sodipodi:cy="395.09891"
         sodipodi:r1="4.0909109"
         sodipodi:r2="3.5428326"
         sodipodi:arg1="1.047518"
         sodipodi:arg2="1.5711168"
         inkscape:rounded="0"
         inkscape:randomized="0"
         d="m 333.633,398.6424 -4.09091,-0.001 -2.04432,-3.54348 2.04659,-3.54218 4.09091,0.001 2.04432,3.54349 z"
         transform="matrix(0.23031709,0.13022435,-0.13022435,0.23031709,73.516312,-24.857206)" />
      <path
         sodipodi:type="star"
         style="fill:none;fill-opacity:1;stroke:#070504;stroke-width:0.623622;stroke-miterlimit:4;stroke-dasharray:none;stroke-opacity:1"
         id="path6207"
         inkscape:flatsided="true"
         sodipodi:sides="6"
         sodipodi:cx="331.58868"
         sodipodi:cy="395.09891"
         sodipodi:r1="4.0909109"
         sodipodi:r2="3.5428326"
         sodipodi:arg1="1.047518"
         sodipodi:arg2="1.5711168"
         inkscape:rounded="0"
         inkscape:randomized="0"
         d="m 333.633,398.6424 -4.09091,-0.001 -2.04432,-3.54348 2.04659,-3.54218 4.09091,0.001 2.04432,3.54349 z"
         transform="matrix(0.23031709,0.13022435,-0.13022435,0.23031709,75.39099,-24.873476)" />
      <path
         sodipodi:type="star"
         style="fill:none;fill-opacity:1;stroke:#070504;stroke-width:0.623622;stroke-miterlimit:4;stroke-dasharray:none;stroke-opacity:1"
         id="path6209"
         inkscape:flatsided="true"
         sodipodi:sides="6"
         sodipodi:cx="331.58868"
         sodipodi:cy="395.09891"
         sodipodi:r1="4.0909109"
         sodipodi:r2="3.5428326"
         sodipodi:arg1="1.047518"
         sodipodi:arg2="1.5711168"
         inkscape:rounded="0"
         inkscape:randomized="0"
         d="m 333.633,398.6424 -4.09091,-0.001 -2.04432,-3.54348 2.04659,-3.54218 4.09091,0.001 2.04432,3.54349 z"
         transform="matrix(0.23031709,0.13022435,-0.13022435,0.23031709,79.140346,-24.906016)" />
      <path
         sodipodi:type="star"
         style="fill:none;fill-opacity:1;stroke:#070504;stroke-width:0.623622;stroke-miterlimit:4;stroke-dasharray:none;stroke-opacity:1"
         id="path6211"
         inkscape:flatsided="true"
         sodipodi:sides="6"
         sodipodi:cx="331.58868"
         sodipodi:cy="395.09891"
         sodipodi:r1="4.0909109"
         sodipodi:r2="3.5428326"
         sodipodi:arg1="1.047518"
         sodipodi:arg2="1.5711168"
         inkscape:rounded="0"
         inkscape:randomized="0"
         d="m 333.633,398.6424 -4.09091,-0.001 -2.04432,-3.54348 2.04659,-3.54218 4.09091,0.001 2.04432,3.54349 z"
         transform="matrix(0.23031709,0.13022435,-0.13022435,0.23031709,79.140346,-24.906016)" />
      <path
         sodipodi:type="star"
         style="fill:none;fill-opacity:1;stroke:#070504;stroke-width:0.623622;stroke-miterlimit:4;stroke-dasharray:none;stroke-opacity:1"
         id="path6213"
         inkscape:flatsided="true"
         sodipodi:sides="6"
         sodipodi:cx="331.58868"
         sodipodi:cy="395.09891"
         sodipodi:r1="4.0909109"
         sodipodi:r2="3.5428326"
         sodipodi:arg1="1.047518"
         sodipodi:arg2="1.5711168"
         inkscape:rounded="0"
         inkscape:randomized="0"
         d="m 333.633,398.6424 -4.09091,-0.001 -2.04432,-3.54348 2.04659,-3.54218 4.09091,0.001 2.04432,3.54349 z"
         transform="matrix(0.23031709,0.13022435,-0.13022435,0.23031709,82.889702,-24.938556)" />
      <path
         sodipodi:type="star"
         style="fill:none;fill-opacity:1;stroke:#070504;stroke-width:0.623622;stroke-miterlimit:4;stroke-dasharray:none;stroke-opacity:1"
         id="path6215"
         inkscape:flatsided="true"
         sodipodi:sides="6"
         sodipodi:cx="331.58868"
         sodipodi:cy="395.09891"
         sodipodi:r1="4.0909109"
         sodipodi:r2="3.5428326"
         sodipodi:arg1="1.047518"
         sodipodi:arg2="1.5711168"
         inkscape:rounded="0"
         inkscape:randomized="0"
         d="m 333.633,398.6424 -4.09091,-0.001 -2.04432,-3.54348 2.04659,-3.54218 4.09091,0.001 2.04432,3.54349 z"
         transform="matrix(0.23031709,0.13022435,-0.13022435,0.23031709,81.015024,-24.922286)" />
      <path
         sodipodi:type="star"
         style="fill:none;fill-opacity:1;stroke:#070504;stroke-width:0.623622;stroke-miterlimit:4;stroke-dasharray:none;stroke-opacity:1"
         id="path6221"
         inkscape:flatsided="true"
         sodipodi:sides="6"
         sodipodi:cx="331.58868"
         sodipodi:cy="395.09891"
         sodipodi:r1="4.0909109"
         sodipodi:r2="3.5428326"
         sodipodi:arg1="1.047518"
         sodipodi:arg2="1.5711168"
         inkscape:rounded="0"
         inkscape:randomized="0"
         d="m 333.633,398.6424 -4.09091,-0.001 -2.04432,-3.54348 2.04659,-3.54218 4.09091,0.001 2.04432,3.54349 z"
         transform="matrix(0.23031709,0.13022435,-0.13022435,0.23031709,71.641634,-24.840936)" />
      <path
         sodipodi:type="star"
         style="fill:none;fill-opacity:1;stroke:#070504;stroke-width:0.623622;stroke-miterlimit:4;stroke-dasharray:none;stroke-opacity:1"
         id="path6223"
         inkscape:flatsided="true"
         sodipodi:sides="6"
         sodipodi:cx="331.58868"
         sodipodi:cy="395.09891"
         sodipodi:r1="4.0909109"
         sodipodi:r2="3.5428326"
         sodipodi:arg1="1.047518"
         sodipodi:arg2="1.5711168"
         inkscape:rounded="0"
         inkscape:randomized="0"
         d="m 333.633,398.6424 -4.09091,-0.001 -2.04432,-3.54348 2.04659,-3.54218 4.09091,0.001 2.04432,3.54349 z"
         transform="matrix(0.23031709,0.13022435,-0.13022435,0.23031709,69.766956,-24.824666)" />
      <path
         sodipodi:type="star"
         style="fill:none;fill-opacity:1;stroke:#070504;stroke-width:0.623622;stroke-miterlimit:4;stroke-dasharray:none;stroke-opacity:1"
         id="path6225"
         inkscape:flatsided="true"
         sodipodi:sides="6"
         sodipodi:cx="331.58868"
         sodipodi:cy="395.09891"
         sodipodi:r1="4.0909109"
         sodipodi:r2="3.5428326"
         sodipodi:arg1="1.047518"
         sodipodi:arg2="1.5711168"
         inkscape:rounded="0"
         inkscape:randomized="0"
         d="m 333.633,398.6424 -4.09091,-0.001 -2.04432,-3.54348 2.04659,-3.54218 4.09091,0.001 2.04432,3.54349 z"
         transform="matrix(0.23031709,0.13022435,-0.13022435,0.23031709,86.639058,-24.971096)" />
      <path
         sodipodi:type="star"
         style="fill:none;fill-opacity:1;stroke:#070504;stroke-width:0.623622;stroke-miterlimit:4;stroke-dasharray:none;stroke-opacity:1"
         id="path6227"
         inkscape:flatsided="true"
         sodipodi:sides="6"
         sodipodi:cx="331.58868"
         sodipodi:cy="395.09891"
         sodipodi:r1="4.0909109"
         sodipodi:r2="3.5428326"
         sodipodi:arg1="1.047518"
         sodipodi:arg2="1.5711168"
         inkscape:rounded="0"
         inkscape:randomized="0"
         d="m 333.633,398.6424 -4.09091,-0.001 -2.04432,-3.54348 2.04659,-3.54218 4.09091,0.001 2.04432,3.54349 z"
         transform="matrix(0.23031709,0.13022435,-0.13022435,0.23031709,84.76438,-24.954826)" />
      <path
         sodipodi:type="star"
         style="fill:none;fill-opacity:1;stroke:#070504;stroke-width:0.623622;stroke-miterlimit:4;stroke-dasharray:none;stroke-opacity:1"
         id="path6233"
         inkscape:flatsided="true"
         sodipodi:sides="6"
         sodipodi:cx="331.58868"
         sodipodi:cy="395.09891"
         sodipodi:r1="4.0909109"
         sodipodi:r2="3.5428326"
         sodipodi:arg1="1.047518"
         sodipodi:arg2="1.5711168"
         inkscape:rounded="0"
         inkscape:randomized="0"
         d="m 333.633,398.6424 -4.09091,-0.001 -2.04432,-3.54348 2.04659,-3.54218 4.09091,0.001 2.04432,3.54349 z"
         transform="matrix(0.23031709,0.13022435,-0.13022435,0.23031709,89.436985,-26.61902)" />
      <path
         sodipodi:type="star"
         style="fill:none;fill-opacity:1;stroke:#070504;stroke-width:0.623622;stroke-miterlimit:4;stroke-dasharray:none;stroke-opacity:1"
         id="path6235"
         inkscape:flatsided="true"
         sodipodi:sides="6"
         sodipodi:cx="331.58868"
         sodipodi:cy="395.09891"
         sodipodi:r1="4.0909109"
         sodipodi:r2="3.5428326"
         sodipodi:arg1="1.047518"
         sodipodi:arg2="1.5711168"
         inkscape:rounded="0"
         inkscape:randomized="0"
         d="m 333.633,398.6424 -4.09091,-0.001 -2.04432,-3.54348 2.04659,-3.54218 4.09091,0.001 2.04432,3.54349 z"
         transform="matrix(0.23031709,0.13022435,-0.13022435,0.23031709,87.562307,-26.60275)" />
      <path
         sodipodi:type="star"
         style="fill:none;fill-opacity:1;stroke:#070504;stroke-width:0.623622;stroke-miterlimit:4;stroke-dasharray:none;stroke-opacity:1"
         id="path6237"
         inkscape:flatsided="true"
         sodipodi:sides="6"
         sodipodi:cx="331.58868"
         sodipodi:cy="395.09891"
         sodipodi:r1="4.0909109"
         sodipodi:r2="3.5428326"
         sodipodi:arg1="1.047518"
         sodipodi:arg2="1.5711168"
         inkscape:rounded="0"
         inkscape:randomized="0"
         d="m 333.633,398.6424 -4.09091,-0.001 -2.04432,-3.54348 2.04659,-3.54218 4.09091,0.001 2.04432,3.54349 z"
         transform="matrix(0.23031709,0.13022435,-0.13022435,0.23031709,91.311663,-26.63529)" />
      <path
         sodipodi:type="star"
         style="fill:none;fill-opacity:1;stroke:#070504;stroke-width:0.623622;stroke-miterlimit:4;stroke-dasharray:none;stroke-opacity:1"
         id="path6239"
         inkscape:flatsided="true"
         sodipodi:sides="6"
         sodipodi:cx="331.58868"
         sodipodi:cy="395.09891"
         sodipodi:r1="4.0909109"
         sodipodi:r2="3.5428326"
         sodipodi:arg1="1.047518"
         sodipodi:arg2="1.5711168"
         inkscape:rounded="0"
         inkscape:randomized="0"
         d="m 333.633,398.6424 -4.09091,-0.001 -2.04432,-3.54348 2.04659,-3.54218 4.09091,0.001 2.04432,3.54349 z"
         transform="matrix(0.23031709,0.13022435,-0.13022435,0.23031709,90.360234,-28.250674)" />
      <path
         sodipodi:type="star"
         style="fill:none;fill-opacity:1;stroke:#070504;stroke-width:0.623622;stroke-miterlimit:4;stroke-dasharray:none;stroke-opacity:1"
         id="path6241"
         inkscape:flatsided="true"
         sodipodi:sides="6"
         sodipodi:cx="331.58868"
         sodipodi:cy="395.09891"
         sodipodi:r1="4.0909109"
         sodipodi:r2="3.5428326"
         sodipodi:arg1="1.047518"
         sodipodi:arg2="1.5711168"
         inkscape:rounded="0"
         inkscape:randomized="0"
         d="m 333.633,398.6424 -4.09091,-0.001 -2.04432,-3.54348 2.04659,-3.54218 4.09091,0.001 2.04432,3.54349 z"
         transform="matrix(0.23031709,0.13022435,-0.13022435,0.23031709,93.186341,-26.65156)" />
      <path
         sodipodi:type="star"
         style="fill:none;fill-opacity:1;stroke:#070504;stroke-width:0.623622;stroke-miterlimit:4;stroke-dasharray:none;stroke-opacity:1"
         id="path6243"
         inkscape:flatsided="true"
         sodipodi:sides="6"
         sodipodi:cx="331.58868"
         sodipodi:cy="395.09891"
         sodipodi:r1="4.0909109"
         sodipodi:r2="3.5428326"
         sodipodi:arg1="1.047518"
         sodipodi:arg2="1.5711168"
         inkscape:rounded="0"
         inkscape:randomized="0"
         d="m 333.633,398.6424 -4.09091,-0.001 -2.04432,-3.54348 2.04659,-3.54218 4.09091,0.001 2.04432,3.54349 z"
         transform="matrix(0.23031709,0.13022435,-0.13022435,0.23031709,94.10959,-28.283214)" />
      <path
         sodipodi:type="star"
         style="fill:none;fill-opacity:1;stroke:#070504;stroke-width:0.623622;stroke-miterlimit:4;stroke-dasharray:none;stroke-opacity:1"
         id="path6245"
         inkscape:flatsided="true"
         sodipodi:sides="6"
         sodipodi:cx="331.58868"
         sodipodi:cy="395.09891"
         sodipodi:r1="4.0909109"
         sodipodi:r2="3.5428326"
         sodipodi:arg1="1.047518"
         sodipodi:arg2="1.5711168"
         inkscape:rounded="0"
         inkscape:randomized="0"
         d="m 333.633,398.6424 -4.09091,-0.001 -2.04432,-3.54348 2.04659,-3.54218 4.09091,0.001 2.04432,3.54349 z"
         transform="matrix(0.23031709,0.13022435,-0.13022435,0.23031709,95.984268,-28.299484)" />
      <path
         sodipodi:type="star"
         style="fill:none;fill-opacity:1;stroke:#070504;stroke-width:0.623622;stroke-miterlimit:4;stroke-dasharray:none;stroke-opacity:1"
         id="path6247"
         inkscape:flatsided="true"
         sodipodi:sides="6"
         sodipodi:cx="331.58868"
         sodipodi:cy="395.09891"
         sodipodi:r1="4.0909109"
         sodipodi:r2="3.5428326"
         sodipodi:arg1="1.047518"
         sodipodi:arg2="1.5711168"
         inkscape:rounded="0"
         inkscape:randomized="0"
         d="m 333.633,398.6424 -4.09091,-0.001 -2.04432,-3.54348 2.04659,-3.54218 4.09091,0.001 2.04432,3.54349 z"
         transform="matrix(0.23031709,0.13022435,-0.13022435,0.23031709,96.907517,-29.931138)" />
      <path
         sodipodi:type="star"
         style="fill:none;fill-opacity:1;stroke:#070504;stroke-width:0.623622;stroke-miterlimit:4;stroke-dasharray:none;stroke-opacity:1"
         id="path6249"
         inkscape:flatsided="true"
         sodipodi:sides="6"
         sodipodi:cx="331.58868"
         sodipodi:cy="395.09891"
         sodipodi:r1="4.0909109"
         sodipodi:r2="3.5428326"
         sodipodi:arg1="1.047518"
         sodipodi:arg2="1.5711168"
         inkscape:rounded="0"
         inkscape:randomized="0"
         d="m 333.633,398.6424 -4.09091,-0.001 -2.04432,-3.54348 2.04659,-3.54218 4.09091,0.001 2.04432,3.54349 z"
         transform="matrix(0.23031709,0.13022435,-0.13022435,0.23031709,67.892278,-24.808396)" />
      <path
         sodipodi:type="star"
         style="fill:none;fill-opacity:1;stroke:#070504;stroke-width:0.623622;stroke-miterlimit:4;stroke-dasharray:none;stroke-opacity:1"
         id="path6251"
         inkscape:flatsided="true"
         sodipodi:sides="6"
         sodipodi:cx="331.58868"
         sodipodi:cy="395.09891"
         sodipodi:r1="4.0909109"
         sodipodi:r2="3.5428326"
         sodipodi:arg1="1.047518"
         sodipodi:arg2="1.5711168"
         inkscape:rounded="0"
         inkscape:randomized="0"
         d="m 333.633,398.6424 -4.09091,-0.001 -2.04432,-3.54348 2.04659,-3.54218 4.09091,0.001 2.04432,3.54349 z"
         transform="matrix(0.23031709,0.13022435,-0.13022435,0.23031709,68.815527,-26.44005)" />
      <path
         sodipodi:type="star"
         style="fill:none;fill-opacity:1;stroke:#070504;stroke-width:0.623622;stroke-miterlimit:4;stroke-dasharray:none;stroke-opacity:1"
         id="path6253"
         inkscape:flatsided="true"
         sodipodi:sides="6"
         sodipodi:cx="331.58868"
         sodipodi:cy="395.09891"
         sodipodi:r1="4.0909109"
         sodipodi:r2="3.5428326"
         sodipodi:arg1="1.047518"
         sodipodi:arg2="1.5711168"
         inkscape:rounded="0"
         inkscape:randomized="0"
         d="m 333.633,398.6424 -4.09091,-0.001 -2.04432,-3.54348 2.04659,-3.54218 4.09091,0.001 2.04432,3.54349 z"
         transform="matrix(0.23031709,0.13022435,-0.13022435,0.23031709,66.940849,-26.42378)" />
      <path
         sodipodi:type="star"
         style="fill:none;fill-opacity:1;stroke:#070504;stroke-width:0.623622;stroke-miterlimit:4;stroke-dasharray:none;stroke-opacity:1"
         id="path6255"
         inkscape:flatsided="true"
         sodipodi:sides="6"
         sodipodi:cx="331.58868"
         sodipodi:cy="395.09891"
         sodipodi:r1="4.0909109"
         sodipodi:r2="3.5428326"
         sodipodi:arg1="1.047518"
         sodipodi:arg2="1.5711168"
         inkscape:rounded="0"
         inkscape:randomized="0"
         d="m 333.633,398.6424 -4.09091,-0.001 -2.04432,-3.54348 2.04659,-3.54218 4.09091,0.001 2.04432,3.54349 z"
         transform="matrix(0.23031709,0.13022435,-0.13022435,0.23031709,65.066171,-26.40751)" />
      <path
         sodipodi:type="star"
         style="fill:none;fill-opacity:1;stroke:#070504;stroke-width:0.623622;stroke-miterlimit:4;stroke-dasharray:none;stroke-opacity:1"
         id="path6257"
         inkscape:flatsided="true"
         sodipodi:sides="6"
         sodipodi:cx="331.58868"
         sodipodi:cy="395.09891"
         sodipodi:r1="4.0909109"
         sodipodi:r2="3.5428326"
         sodipodi:arg1="1.047518"
         sodipodi:arg2="1.5711168"
         inkscape:rounded="0"
         inkscape:randomized="0"
         d="m 333.633,398.6424 -4.09091,-0.001 -2.04432,-3.54348 2.04659,-3.54218 4.09091,0.001 2.04432,3.54349 z"
         transform="matrix(0.23031709,0.13022435,-0.13022435,0.23031709,63.191493,-26.39124)" />
      <path
         sodipodi:type="star"
         style="fill:none;fill-opacity:1;stroke:#070504;stroke-width:0.623622;stroke-miterlimit:4;stroke-dasharray:none;stroke-opacity:1"
         id="path6259"
         inkscape:flatsided="true"
         sodipodi:sides="6"
         sodipodi:cx="331.58868"
         sodipodi:cy="395.09891"
         sodipodi:r1="4.0909109"
         sodipodi:r2="3.5428326"
         sodipodi:arg1="1.047518"
         sodipodi:arg2="1.5711168"
         inkscape:rounded="0"
         inkscape:randomized="0"
         d="m 333.633,398.6424 -4.09091,-0.001 -2.04432,-3.54348 2.04659,-3.54218 4.09091,0.001 2.04432,3.54349 z"
         transform="matrix(0.23031709,0.13022435,-0.13022435,0.23031709,61.316815,-26.37497)" />
      <path
         sodipodi:type="star"
         style="fill:none;fill-opacity:1;stroke:#070504;stroke-width:0.623622;stroke-miterlimit:4;stroke-dasharray:none;stroke-opacity:1"
         id="path6261"
         inkscape:flatsided="true"
         sodipodi:sides="6"
         sodipodi:cx="331.58868"
         sodipodi:cy="395.09891"
         sodipodi:r1="4.0909109"
         sodipodi:r2="3.5428326"
         sodipodi:arg1="1.047518"
         sodipodi:arg2="1.5711168"
         inkscape:rounded="0"
         inkscape:randomized="0"
         d="m 333.633,398.6424 -4.09091,-0.001 -2.04432,-3.54348 2.04659,-3.54218 4.09091,0.001 2.04432,3.54349 z"
         transform="matrix(0.23031709,0.13022435,-0.13022435,0.23031709,60.365386,-27.990354)" />
      <path
         sodipodi:type="star"
         style="fill:none;fill-opacity:1;stroke:#070504;stroke-width:0.623622;stroke-miterlimit:4;stroke-dasharray:none;stroke-opacity:1"
         id="path6263"
         inkscape:flatsided="true"
         sodipodi:sides="6"
         sodipodi:cx="331.58868"
         sodipodi:cy="395.09891"
         sodipodi:r1="4.0909109"
         sodipodi:r2="3.5428326"
         sodipodi:arg1="1.047518"
         sodipodi:arg2="1.5711168"
         inkscape:rounded="0"
         inkscape:randomized="0"
         d="m 333.633,398.6424 -4.09091,-0.001 -2.04432,-3.54348 2.04659,-3.54218 4.09091,0.001 2.04432,3.54349 z"
         transform="matrix(0.23031709,0.13022435,-0.13022435,0.23031709,58.490708,-27.974084)" />
      <path
         sodipodi:type="star"
         style="fill:none;fill-opacity:1;stroke:#070504;stroke-width:0.623622;stroke-miterlimit:4;stroke-dasharray:none;stroke-opacity:1"
         id="path6265"
         inkscape:flatsided="true"
         sodipodi:sides="6"
         sodipodi:cx="331.58868"
         sodipodi:cy="395.09891"
         sodipodi:r1="4.0909109"
         sodipodi:r2="3.5428326"
         sodipodi:arg1="1.047518"
         sodipodi:arg2="1.5711168"
         inkscape:rounded="0"
         inkscape:randomized="0"
         d="m 333.633,398.6424 -4.09091,-0.001 -2.04432,-3.54348 2.04659,-3.54218 4.09091,0.001 2.04432,3.54349 z"
         transform="matrix(0.23031709,0.13022435,-0.13022435,0.23031709,56.61603,-27.957814)" />
      <path
         sodipodi:type="star"
         style="fill:none;fill-opacity:1;stroke:#070504;stroke-width:0.623622;stroke-miterlimit:4;stroke-dasharray:none;stroke-opacity:1"
         id="path6267"
         inkscape:flatsided="true"
         sodipodi:sides="6"
         sodipodi:cx="331.58868"
         sodipodi:cy="395.09891"
         sodipodi:r1="4.0909109"
         sodipodi:r2="3.5428326"
         sodipodi:arg1="1.047518"
         sodipodi:arg2="1.5711168"
         inkscape:rounded="0"
         inkscape:randomized="0"
         d="m 333.633,398.6424 -4.09091,-0.001 -2.04432,-3.54348 2.04659,-3.54218 4.09091,0.001 2.04432,3.54349 z"
         transform="matrix(0.23031709,0.13022435,-0.13022435,0.23031709,55.664601,-29.573198)" />
      <path
         sodipodi:type="star"
         style="fill:none;fill-opacity:1;stroke:#070504;stroke-width:0.623622;stroke-miterlimit:4;stroke-dasharray:none;stroke-opacity:1"
         id="path6269"
         inkscape:flatsided="true"
         sodipodi:sides="6"
         sodipodi:cx="331.58868"
         sodipodi:cy="395.09891"
         sodipodi:r1="4.0909109"
         sodipodi:r2="3.5428326"
         sodipodi:arg1="1.047518"
         sodipodi:arg2="1.5711168"
         inkscape:rounded="0"
         inkscape:randomized="0"
         d="m 333.633,398.6424 -4.09091,-0.001 -2.04432,-3.54348 2.04659,-3.54218 4.09091,0.001 2.04432,3.54349 z"
         transform="matrix(0.23031709,0.13022435,-0.13022435,0.23031709,64.114742,-28.022894)" />
      <path
         sodipodi:type="star"
         style="fill:none;fill-opacity:1;stroke:#070504;stroke-width:0.623622;stroke-miterlimit:4;stroke-dasharray:none;stroke-opacity:1"
         id="path6271"
         inkscape:flatsided="true"
         sodipodi:sides="6"
         sodipodi:cx="331.58868"
         sodipodi:cy="395.09891"
         sodipodi:r1="4.0909109"
         sodipodi:r2="3.5428326"
         sodipodi:arg1="1.047518"
         sodipodi:arg2="1.5711168"
         inkscape:rounded="0"
         inkscape:randomized="0"
         d="m 333.633,398.6424 -4.09091,-0.001 -2.04432,-3.54348 2.04659,-3.54218 4.09091,0.001 2.04432,3.54349 z"
         transform="matrix(0.23031709,0.13022435,-0.13022435,0.23031709,74.439561,-26.48886)" />
      <path
         sodipodi:type="star"
         style="fill:none;fill-opacity:1;stroke:#070504;stroke-width:0.623622;stroke-miterlimit:4;stroke-dasharray:none;stroke-opacity:1"
         id="path6273"
         inkscape:flatsided="true"
         sodipodi:sides="6"
         sodipodi:cx="331.58868"
         sodipodi:cy="395.09891"
         sodipodi:r1="4.0909109"
         sodipodi:r2="3.5428326"
         sodipodi:arg1="1.047518"
         sodipodi:arg2="1.5711168"
         inkscape:rounded="0"
         inkscape:randomized="0"
         d="m 333.633,398.6424 -4.09091,-0.001 -2.04432,-3.54348 2.04659,-3.54218 4.09091,0.001 2.04432,3.54349 z"
         transform="matrix(0.23031709,0.13022435,-0.13022435,0.23031709,81.938273,-26.55394)" />
      <ellipse
         style="fill:none;stroke:#ffffff;stroke-width:3.33362;stroke-miterlimit:4;stroke-dasharray:none;stroke-opacity:1"
         id="ellipse6355"
         cx="108.08688"
         cy="69.932022"
         rx="11.289863"
         ry="12.388268" />
      <path
         style="fill:none;stroke:#ffffff;stroke-width:1;stroke-linecap:butt;stroke-linejoin:miter;stroke-miterlimit:4;stroke-dasharray:none;stroke-opacity:1"
         d="m 101.17582,59.971153 c -2.732845,-15.134305 4.34802,-26.116657 15.70673,-35.289148 v 0"
         id="path6730"
         sodipodi:nodetypes="ccc" />
      <path
         style="fill:#ffffff;fill-opacity:1;stroke:#ffffff;stroke-width:0.746733;stroke-linecap:butt;stroke-linejoin:miter;stroke-miterlimit:4;stroke-dasharray:none;stroke-opacity:1"
         d="m 100.76386,47.825213 -3.791591,-5.293475 c -0.886653,-1.110412 -1.942872,-1.955783 -3.266741,-2.382805 l -3.652829,-1.180091 c -0.701502,6.381225 4.718437,4.888708 10.711161,8.856371 z"
         id="path6917"
         sodipodi:nodetypes="ccccc" />
      <path
         style="fill:#ffffff;fill-opacity:1;stroke:#ffffff;stroke-width:0.746733;stroke-linecap:butt;stroke-linejoin:miter;stroke-miterlimit:4;stroke-dasharray:none;stroke-opacity:1"
         d="m 100.76386,47.825213 6.01124,-2.502406 c 1.33857,-0.476844 2.68168,-0.639078 4.03193,-0.304721 l 3.72661,0.920986 c -2.76496,5.793716 -6.58588,1.670134 -13.76978,1.886141 z"
         id="path9625"
         sodipodi:nodetypes="ccccc" />
      <path
         style="fill:#ffffff;fill-opacity:1;stroke:#ffffff;stroke-width:0.718664;stroke-linecap:butt;stroke-linejoin:miter;stroke-miterlimit:4;stroke-dasharray:none;stroke-opacity:1"
         d="m 103.72588,39.994646 5.3787,-2.945348 c 1.20329,-0.575703 2.43258,-0.838017 3.70291,-0.60567 l 3.50587,0.639454 c -2.15212,5.984429 -5.96715,2.158424 -12.58748,2.911564 z"
         id="path9627"
         sodipodi:nodetypes="ccccc" />
      <path
         style="fill:#ffffff;fill-opacity:1;stroke:#ffffff;stroke-width:0.68468;stroke-linecap:butt;stroke-linejoin:miter;stroke-miterlimit:4;stroke-dasharray:none;stroke-opacity:1"
         d="m 103.72588,39.994646 -1.82383,-5.967326 c -0.45848,-1.277305 -1.12439,-2.356371 -2.117756,-3.122533 l -2.740432,-2.115714 c -2.184035,5.718672 2.695836,5.851419 6.682018,11.205573 z"
         id="path9629"
         sodipodi:nodetypes="ccccc" />
      <path
         style="fill:#ffffff;fill-opacity:1;stroke:#ffffff;stroke-width:0.54268;stroke-linecap:butt;stroke-linejoin:miter;stroke-miterlimit:4;stroke-dasharray:none;stroke-opacity:1"
         d="m 107.79924,33.705863 0.74826,-4.832752 c 0.11167,-1.062363 0.008,-2.074072 -0.43707,-3.005834 l -1.22597,-2.571904 c -3.51746,3.019311 -0.0874,5.110927 0.91478,10.41049 z"
         id="path9631"
         sodipodi:nodetypes="ccccc" />
      <path
         style="fill:#ffffff;fill-opacity:1;stroke:#ffffff;stroke-width:0.54268;stroke-linecap:butt;stroke-linejoin:miter;stroke-miterlimit:4;stroke-dasharray:none;stroke-opacity:1"
         d="m 110.25129,30.965338 4.43246,-2.06609 c 0.98909,-0.403457 1.98959,-0.585991 3.00849,-0.418373 l 2.81174,0.460231 c -1.9188,4.219829 -4.88386,1.509002 -10.25269,2.024232 z"
         id="path9633"
         sodipodi:nodetypes="ccccc" />
      <path
         style="fill:#ffffff;fill-opacity:1;stroke:#ffffff;stroke-width:0.353908;stroke-linecap:butt;stroke-linejoin:miter;stroke-miterlimit:4;stroke-dasharray:none;stroke-opacity:1"
         d="m 116.20243,24.694471 2.5883,1.368687 c 0.58581,0.267798 1.21053,0.391476 1.89725,0.286626 l 1.89468,-0.287852 c -0.64581,-2.763466 -2.96145,-1.007052 -6.38023,-1.367461 z"
         id="path9635"
         sodipodi:nodetypes="ccccc" />
      <path
         style="fill:#ffffff;fill-opacity:1;stroke:#ffffff;stroke-width:0.355774;stroke-linecap:butt;stroke-linejoin:miter;stroke-miterlimit:4;stroke-dasharray:none;stroke-opacity:1"
         d="m 116.31769,25.113991 -0.28787,-2.726489 c -0.0225,-0.59347 0.11865,-1.135246 0.51915,-1.595229 l 1.10325,-1.270057 c 2.53924,2.043162 -0.24008,2.805028 -1.33444,5.591823 z"
         id="path9637"
         sodipodi:nodetypes="ccccc" />
    </g>
  </g>
</svg>
